<?xml version="1.0" standalone="no"?><svg xmlns="http://www.w3.org/2000/svg" viewBox="0 0 1440 320"><path fill="#00cba9" fill-opacity="1" d="M0,320L30,282.7C60,245,120,171,180,149.3C240,128,300,160,360,181.3C420,203,480,213,540,213.3C600,213,660,203,720,202.7C780,203,840,213,900,186.7C960,160,1020,96,1080,69.3C1140,43,1200,53,1260,48C1320,43,1380,21,1410,10.7L1440,0L1440,320L1410,320C1380,320,1320,320,1260,320C1200,320,1140,320,1080,320C1020,320,960,320,900,320C840,320,780,320,720,320C660,320,600,320,540,320C480,320,420,320,360,320C300,320,240,320,180,320C120,320,60,320,30,320L0,320Z"></path></svg>