<svg width="52" height="52" viewBox="0 0 52 52" fill="none" xmlns="http://www.w3.org/2000/svg">
<path fill-rule="evenodd" clip-rule="evenodd" d="M52 26.1547C51.9991 21.1557 50.5746 16.2616 47.8951 12.0519C45.2156 7.84212 41.3933 4.49298 36.8808 2.40093C32.3683 0.308884 27.3545 -0.43846 22.4329 0.247377C17.5114 0.933215 12.8882 3.02352 9.11071 6.27081C5.33321 9.51811 2.55957 13.7864 1.11816 18.5704C-0.323249 23.3545 -0.372077 28.4538 0.977471 33.2649C2.32702 38.076 5.01842 42.3972 8.73306 45.7172C12.4477 49.0371 17.03 51.2166 21.9375 51.9977V33.7188H15.3342V26.1547H21.9375V20.3903C21.9375 13.8352 25.8201 10.2114 31.7583 10.2114C33.7084 10.2388 35.6539 10.4097 37.5793 10.7229V17.1612H34.2991C31.0712 17.1612 30.0613 19.1769 30.0613 21.2486V26.1559H37.2717L36.1202 33.7199H30.0613V52C36.1776 51.0254 41.7475 47.8868 45.7692 43.1491C49.7908 38.4113 52.0002 32.3851 52 26.1546L52 26.1547Z" fill="#04D7A2"/>
</svg>
