<svg width="52" height="52" viewBox="0 0 52 52" fill="none" xmlns="http://www.w3.org/2000/svg">
<path d="M36.833 4.33294C39.7037 4.34152 42.4544 5.48573 44.4844 7.51566C46.5143 9.54559 47.6585 12.2963 47.6671 15.167V36.833C47.6585 39.7037 46.5143 42.4544 44.4843 44.4843C42.4544 46.5143 39.7037 47.6585 36.833 47.667H15.1671C12.2964 47.6585 9.54566 46.5143 7.51573 44.4843C5.4858 42.4544 4.34159 39.7037 4.33301 36.833V15.167C4.34158 12.2963 5.48578 9.54559 7.5157 7.51566C9.54563 5.48573 12.2963 4.34152 15.1671 4.33294H36.833ZM36.833 0H15.1671C11.1481 0.01169 7.29712 1.6134 4.45527 4.45524C1.61342 7.29708 0.0116989 11.1481 0 15.167V36.833C0.0116989 40.8519 1.61342 44.7029 4.45527 47.5448C7.29712 50.3866 11.1481 51.9883 15.1671 52H36.833C40.8519 51.9883 44.7029 50.3866 47.5448 47.5447C50.3866 44.7029 51.9883 40.8519 52 36.833V15.167C51.9883 11.1481 50.3866 7.29711 47.5448 4.45527C44.7029 1.61343 40.8519 0.0117098 36.833 0Z" fill="#04D7A2"/>
<path d="M26 17.3329C27.7142 17.3329 29.3899 17.8413 30.8152 18.7936C32.2405 19.746 33.3514 21.0996 34.0074 22.6833C34.6633 24.267 34.835 26.0096 34.5005 27.6909C34.1661 29.3721 33.3407 30.9164 32.1285 32.1285C30.9164 33.3407 29.3721 34.1661 27.6909 34.5005C26.0096 34.8349 24.267 34.6633 22.6833 34.0073C21.0996 33.3513 19.746 32.2404 18.7936 30.8151C17.8413 29.3899 17.333 27.7142 17.333 26C17.333 24.8618 17.5571 23.7348 17.9927 22.6832C18.4283 21.6317 19.0667 20.6763 19.8715 19.8715C20.6763 19.0666 21.6318 18.4282 22.6833 17.9927C23.7348 17.5571 24.8619 17.3329 26 17.3329ZM26 13C23.4289 13 20.9155 13.7624 18.7776 15.1909C16.6398 16.6193 14.9735 18.6496 13.9896 21.0251C13.0056 23.4005 12.7482 26.0144 13.2498 28.5361C13.7514 31.0579 14.9895 33.3743 16.8076 35.1924C18.6257 37.0104 20.942 38.2486 23.4638 38.7502C25.9855 39.2518 28.5994 38.9944 30.9749 38.0104C33.3503 37.0265 35.3806 35.3603 36.8091 33.2224C38.2375 31.0846 39 28.5712 39 26C39 22.5522 37.6304 19.2456 35.1924 16.8077C32.7544 14.3697 29.4478 13.0001 26 13.0001V13Z" fill="#04D7A2"/>
<path d="M41.4925 19C40.5649 18.9983 39.676 18.681 39.0211 18.1179C38.3663 17.5548 37.999 16.7919 38 15.9968C38.001 15.2017 38.3702 14.4394 39.0265 13.8775C39.6827 13.3156 40.5724 13 41.5 13C42.4276 13 43.3173 13.3156 43.9735 13.8775C44.6298 14.4394 44.999 15.2017 45 15.9968C45.001 16.7919 44.6337 17.5548 43.9789 18.1179C43.324 18.681 42.4351 18.9983 41.5075 19C41.5025 19 41.4974 19 41.4925 19Z" fill="#04D7A2"/>
</svg>
