<svg width="52" height="39" viewBox="0 0 52 39" fill="none" xmlns="http://www.w3.org/2000/svg">
<path d="M46.8 6.65783L52 5.70673C52 5.70673 47.632 10.177 46.8 10.4623C46.7224 11.4121 46.7224 12.3658 46.8 13.3156C36.816 52.5015 0 35.1912 0 35.1912C13.416 35.4766 14.56 30.4357 14.56 30.4357C6.76001 29.3894 5.20001 24.729 5.20001 24.729C5.89982 25.0666 6.71124 25.1563 7.47883 24.9808C8.24643 24.8053 8.91624 24.377 9.36 23.7779C0.935995 21.7806 2.07997 14.2668 2.07997 14.2668C3.58147 15.2582 5.3362 15.8804 7.17602 16.0739C6.24003 15.0277 -1.66397 6.37249 3.12003 1.90227C3.12003 1.90227 8.94402 11.4134 24.232 12.2694L25.272 12.0792C25.0951 11.3941 25.0251 10.6897 25.064 9.98672C25.064 7.33808 26.2145 4.79793 28.2624 2.92506C30.3103 1.05219 33.0878 4.11052e-06 35.984 0C43.264 0 44.824 3.80445 44.824 3.80445L50.0239 0.951149C49.92 0.951156 49.4 5.70671 46.8 6.65783Z" fill="#04D7A2"/>
</svg>
