<svg width="141" height="409" viewBox="0 0 141 409" fill="none" xmlns="http://www.w3.org/2000/svg">
<path opacity="0.1" d="M31.59 409C43.4625 409 53.0871 405.668 53.0871 401.559C53.0871 397.449 43.4625 394.117 31.59 394.117C19.7175 394.117 10.0929 397.449 10.0929 401.559C10.0929 405.668 19.7175 409 31.59 409Z" fill="black"/>
<path opacity="0.1" d="M119.232 409C131.104 409 140.729 405.668 140.729 401.559C140.729 397.449 131.104 394.117 119.232 394.117C107.359 394.117 97.7349 397.449 97.7349 401.559C97.7349 405.668 107.359 409 119.232 409Z" fill="black"/>
<path d="M116.955 126.231V149.091H31.3866V127.628H28.9061V401.559H31.3866V352.519H116.955V401.559H119.435V126.231H116.955ZM116.955 151.571V189.28H31.3866V151.571L116.955 151.571ZM31.3866 269.659V231.95H116.955V269.659H31.3866ZM116.955 272.139V309.848H31.3866V272.139H116.955ZM31.3866 229.47V191.76H116.955V229.47H31.3866ZM31.3866 350.038V312.329H116.955V350.038H31.3866Z" fill="#2F2E41"/>
<path d="M4.4054 131.674V135.1C4.4054 135.1 1.95797 136.079 1.95797 139.995C1.95797 143.911 0 158.596 0 158.596C0 158.596 3.42642 161.533 6.36338 160.554C7.98905 160.06 9.49089 159.226 10.7688 158.106L11.2583 142.932L9.30036 139.016V132.163L4.4054 131.674Z" fill="#189072"/>
<path d="M99.7012 4.13406C99.7012 4.13406 91.1883 5.11307 91.1883 9.02901C91.1883 12.945 84.3779 27.6298 84.3779 27.6298C84.3779 27.6298 96.2961 30.5667 106.512 29.5877C116.727 28.6088 121.835 27.1403 121.835 27.1403L123.537 11.966L116.727 8.05002L99.7012 4.13406Z" fill="#098969"/>
<path d="M98.8777 29.8591V20.5587C98.8777 20.5587 88.5983 0 96.9197 0C105.241 0 106.22 18.6008 106.22 18.6008V31.8171L98.8777 29.8591Z" fill="#FFB8B8"/>
<path d="M10.7689 127.268C10.7689 127.268 5.38443 124.331 4.40545 127.268C3.42646 130.205 0.489499 136.569 4.40545 137.058C8.3214 137.548 12.2373 134.121 12.2373 134.121L10.7689 127.268Z" fill="#FFB8B8"/>
<path d="M37.2692 147.096C37.2692 147.096 34.3217 150.989 38.5981 188.966C42.8746 226.943 40.4105 254.595 48.5288 254.216C48.5288 254.216 46.4099 262.451 53.3084 262.755C60.2069 263.059 63.3584 263.537 63.8954 261.635C64.4324 259.732 65.2733 250.931 63.3998 251.018C63.3998 251.018 63.5163 253.516 64.2989 243.466C65.0814 233.416 62.8656 185.955 65.6965 179.565L76.7669 202.204C76.7669 202.204 77.2626 212.82 79.3693 217.729C81.476 222.637 85.9396 251.218 85.9396 251.218L85.5192 255.618C85.5192 255.618 100.623 257.417 101.131 254.889C101.639 252.362 101.464 248.615 100.781 247.396C100.099 246.176 100.099 246.176 101.231 243.62C101.732 242.659 102.022 241.601 102.079 240.519C102.136 239.436 101.961 238.354 101.564 237.346C100.852 235.501 98.9569 194.91 98.9569 194.91C98.9569 194.91 95.4046 145.634 87.7942 143.486C80.1838 141.338 37.2692 147.096 37.2692 147.096Z" fill="#2F2E41"/>
<path d="M50.5772 257.875L45.9894 266.851C45.9894 266.851 38.0522 264.406 39.9487 271.514C47.5678 271.751 55.1926 271.291 62.7278 270.138C62.7278 270.138 65.9086 271.241 66.4456 269.339C66.9826 267.436 64.4908 260.981 62.6173 261.068C60.7439 261.156 50.5772 257.875 50.5772 257.875Z" fill="#2F2E41"/>
<path d="M86.6806 253.686C86.6806 253.686 82.2096 265.16 84.1122 265.697C86.0148 266.234 102.992 267.945 104.271 268.511C105.549 269.078 111.823 269.41 112.272 265.634C112.722 261.858 108.917 260.784 108.917 260.784C108.917 260.784 101.989 259.856 99.824 253.699C97.659 247.541 86.6806 253.686 86.6806 253.686Z" fill="#2F2E41"/>
<path d="M44.2873 53.9999C51.5087 53.9999 57.3628 48.1458 57.3628 40.9244C57.3628 33.7029 51.5087 27.8488 44.2873 27.8488C37.0658 27.8488 31.2117 33.7029 31.2117 40.9244C31.2117 48.1458 37.0658 53.9999 44.2873 53.9999Z" fill="#FFB8B8"/>
<path d="M37.4052 47.1181C37.4052 47.1181 40.8461 65.0109 39.4697 68.4519C38.0933 71.8928 58.739 67.0755 58.739 67.0755C58.739 67.0755 54.6099 49.1826 55.298 45.0535C55.9862 40.9244 37.4052 47.1181 37.4052 47.1181Z" fill="#FFB8B8"/>
<path d="M43.8899 24.7742C42.8025 24.5771 41.6848 24.6265 40.6191 24.9186C39.766 25.2963 38.9808 25.8114 38.2946 26.4434C37.0494 27.4357 35.7194 28.3168 34.3201 29.0766C33.1516 29.5794 32.099 30.3172 31.2278 31.2443C30.8597 31.7506 30.5658 32.307 30.355 32.8964C29.0138 36.3215 28.6534 40.0525 29.3141 43.671C29.3884 44.1851 29.543 44.6844 29.7725 45.1504C30.4877 46.4683 32.0675 46.9876 33.3983 47.6784C35.9249 48.99 37.8402 51.1985 39.9125 53.1503C40.6822 53.9187 41.5472 54.5853 42.4863 55.1338C45.4427 56.7457 49.0563 56.2199 52.3751 55.6499C52.6102 55.6494 52.843 55.6024 53.06 55.5116C53.2769 55.4208 53.4737 55.2879 53.639 55.1207C53.8043 54.9534 53.935 54.7551 54.0233 54.5371C54.1116 54.3192 54.1559 54.0859 54.1537 53.8507L56.7733 42.0686C57.2481 40.323 57.4741 38.519 57.4446 36.7102C57.2619 33.85 55.7135 29.8881 53.6144 27.8565C51.1687 25.4893 47.0869 25.1126 43.8899 24.7742Z" fill="#2F2E41"/>
<path d="M34.2644 69.5081C34.2644 69.5081 35.2434 62.6552 41.1173 62.1657C44.4394 61.8521 47.7201 61.1959 50.9072 60.2077C51.3967 60.2077 57.7601 60.6972 60.6971 63.6342C60.6971 63.6342 62.6551 66.5712 63.6341 64.6132C64.613 62.6552 64.613 61.6762 66.571 62.6552C68.529 63.6342 68.529 59.7182 71.9555 60.2077C75.3819 60.6972 84.1928 82.7244 84.1928 82.7244L81.2558 86.1509C81.2558 86.1509 77.3399 112.584 84.1928 123.842C91.0457 135.1 93.9827 147.338 87.1297 149.785C80.2768 152.233 32.3064 174.26 34.2644 160.554C36.2224 146.848 34.7539 125.31 32.7959 124.821C30.838 124.331 20.0691 85.6614 20.0691 85.6614C20.5021 83.2062 21.5323 80.8953 23.0688 78.932C24.6052 76.9687 26.6009 75.4134 28.88 74.403C36.7119 70.9766 34.2644 69.5081 34.2644 69.5081Z" fill="#585DB3"/>
<path d="M69.5078 62.1657L71.9553 60.2077C71.9553 60.2077 76.3607 60.2077 76.8502 59.2287C77.3397 58.2497 79.7872 58.2497 81.7452 57.2707C83.7031 56.2918 81.2557 54.8233 83.7031 53.8443C86.1506 52.8653 86.1506 53.8443 86.1506 51.3968C86.1506 48.9493 92.514 46.5019 93.0035 43.5649C93.493 40.6279 98.3879 26.9221 98.3879 26.9221L107.688 29.8591L105.241 47.4809C105.241 47.4809 105.241 56.2917 100.835 62.1657C96.43 68.0396 86.6401 82.7244 81.7452 83.2139C76.8502 83.7034 69.5078 62.1657 69.5078 62.1657Z" fill="#575A88"/>
<path d="M23.006 83.2139L20.069 85.6614C20.069 85.6614 19.09 96.4303 19.09 96.9198C19.09 97.4092 20.069 103.283 19.09 103.773C18.111 104.262 16.1531 114.052 16.6426 114.542V116.01L9.78967 126.779V137.058L25.943 126.779C25.943 126.779 35.2433 125.8 33.7749 117.478C32.3064 109.157 23.006 83.2139 23.006 83.2139Z" fill="#575A88"/>
</svg>
