<svg width="141" height="402" viewBox="0 0 141 402" fill="none" xmlns="http://www.w3.org/2000/svg">
<path opacity="0.1" d="M31.59 401.159C43.4625 401.159 53.0871 397.827 53.0871 393.717C53.0871 389.608 43.4625 386.276 31.59 386.276C19.7175 386.276 10.0929 389.608 10.0929 393.717C10.0929 397.827 19.7175 401.159 31.59 401.159Z" fill="black"/>
<path opacity="0.1" d="M119.232 401.159C131.104 401.159 140.729 397.827 140.729 393.717C140.729 389.608 131.104 386.276 119.232 386.276C107.359 386.276 97.7349 389.608 97.7349 393.717C97.7349 397.827 107.359 401.159 119.232 401.159Z" fill="black"/>
<path d="M116.955 118.389V141.249H31.3866V119.787H28.9061V393.717H31.3866V344.677H116.955V393.717H119.435V118.389H116.955ZM116.955 143.73V181.439H31.3866V143.73L116.955 143.73ZM31.3866 261.818V224.109H116.955V261.818H31.3866ZM116.955 264.298V302.007H31.3866V264.298H116.955ZM31.3866 221.629V183.919H116.955V221.629H31.3866ZM31.3866 342.197V304.487H116.955V342.197H31.3866Z" fill="#2F2E41"/>
<path d="M4.4054 123.833V127.259C4.4054 127.259 1.95797 128.238 1.95797 132.154C1.95797 136.07 0 150.755 0 150.755C0 150.755 3.42642 153.692 6.36338 152.713C7.98905 152.219 9.49089 151.385 10.7688 150.265L11.2583 135.091L9.30036 131.175V124.322L4.4054 123.833Z" fill="#189072"/>
<path d="M115.889 4.52033C115.889 4.52033 107.382 3.48497 106.468 7.29272C105.554 11.1005 95.5037 23.7897 95.5037 23.7897C95.5037 23.7897 106.407 29.4277 116.569 30.8606C126.73 32.2934 132.04 32.0579 132.04 32.0579L137.238 17.7003L131.53 12.3027L115.889 4.52033Z" fill="#098969"/>
<path d="M108.726 30.2501L110.898 21.2067C110.898 21.2067 105.702 -1.18364 113.793 0.758956C121.884 2.70155 118.494 21.0169 118.494 21.0169L115.409 33.8681L108.726 30.2501Z" fill="#FFB8B8"/>
<path d="M10.7689 119.427C10.7689 119.427 5.38443 116.49 4.40545 119.427C3.42646 122.364 0.489499 128.728 4.40545 129.217C8.3214 129.707 12.2373 126.28 12.2373 126.28L10.7689 119.427Z" fill="#FFB8B8"/>
<path d="M37.2692 139.255C37.2692 139.255 34.3217 143.148 38.5981 181.125C42.8746 219.102 40.4105 246.754 48.5288 246.375C48.5288 246.375 46.4099 254.61 53.3084 254.914C60.2069 255.217 63.3584 255.696 63.8954 253.793C64.4324 251.891 65.2733 243.09 63.3998 243.177C63.3998 243.177 63.5163 245.675 64.2989 235.625C65.0814 225.575 62.8656 178.114 65.6965 171.723L76.7669 194.363C76.7669 194.363 77.2626 204.979 79.3693 209.888C81.476 214.796 85.9396 243.377 85.9396 243.377L85.5192 247.777C85.5192 247.777 100.623 249.575 101.131 247.048C101.639 244.521 101.464 240.774 100.781 239.554C100.099 238.335 100.099 238.335 101.231 235.778C101.732 234.817 102.022 233.76 102.079 232.677C102.136 231.595 101.961 230.513 101.564 229.504C100.852 227.66 98.9569 187.068 98.9569 187.068C98.9569 187.068 95.4046 137.792 87.7942 135.644C80.1838 133.496 37.2692 139.255 37.2692 139.255Z" fill="#2F2E41"/>
<path d="M50.5772 250.034L45.9894 259.01C45.9894 259.01 38.0522 256.564 39.9487 263.673C47.5678 263.91 55.1926 263.45 62.7278 262.297C62.7278 262.297 65.9086 263.4 66.4456 261.497C66.9826 259.595 64.4908 253.14 62.6173 253.227C60.7439 253.315 50.5772 250.034 50.5772 250.034Z" fill="#2F2E41"/>
<path d="M86.6806 245.845C86.6806 245.845 82.2096 257.319 84.1122 257.856C86.0148 258.393 102.992 260.104 104.271 260.67C105.549 261.236 111.823 261.569 112.272 257.793C112.722 254.017 108.917 252.943 108.917 252.943C108.917 252.943 101.989 252.015 99.824 245.857C97.659 239.7 86.6806 245.845 86.6806 245.845Z" fill="#2F2E41"/>
<path d="M44.2873 46.1587C51.5087 46.1587 57.3628 40.3046 57.3628 33.0831C57.3628 25.8617 51.5087 20.0076 44.2873 20.0076C37.0658 20.0076 31.2117 25.8617 31.2117 33.0831C31.2117 40.3046 37.0658 46.1587 44.2873 46.1587Z" fill="#FFB8B8"/>
<path d="M37.4052 39.2768C37.4052 39.2768 40.8461 57.1697 39.4697 60.6106C38.0933 64.0516 58.739 59.2342 58.739 59.2342C58.739 59.2342 54.6099 41.3414 55.298 37.2122C55.9862 33.0831 37.4052 39.2768 37.4052 39.2768Z" fill="#FFB8B8"/>
<path d="M43.8899 16.9329C42.8025 16.7359 41.6848 16.7852 40.6191 17.0773C39.766 17.455 38.9808 17.9702 38.2946 18.6021C37.0494 19.5945 35.7194 20.4756 34.3201 21.2353C33.1516 21.7381 32.099 22.476 31.2278 23.403C30.8597 23.9094 30.5658 24.4657 30.355 25.0551C29.0138 28.4802 28.6534 32.2112 29.3141 35.8297C29.3884 36.3439 29.543 36.8431 29.7725 37.3092C30.4877 38.627 32.0675 39.1464 33.3983 39.8372C35.9249 41.1487 37.8402 43.3572 39.9125 45.309C40.6822 46.0774 41.5472 46.744 42.4863 47.2926C45.4427 48.9045 49.0563 48.3786 52.3751 47.8086C52.6102 47.8082 52.843 47.7612 53.06 47.6703C53.2769 47.5795 53.4737 47.4467 53.639 47.2794C53.8043 47.1122 53.935 46.9138 54.0233 46.6959C54.1116 46.4779 54.1559 46.2447 54.1537 46.0095L56.7733 34.2274C57.2481 32.4817 57.4741 30.6778 57.4446 28.8689C57.2619 26.0088 55.7135 22.0469 53.6144 20.0152C51.1687 17.6481 47.0869 17.2714 43.8899 16.9329Z" fill="#2F2E41"/>
<path d="M34.2644 61.6668C34.2644 61.6668 35.2434 54.8139 41.1173 54.3244C44.4394 54.0108 47.7201 53.3547 50.9072 52.3665C51.3967 52.3665 57.7601 52.8559 60.6971 55.7929C60.6971 55.7929 62.6551 58.7299 63.6341 56.7719C64.613 54.8139 64.613 53.8349 66.571 54.8139C68.529 55.7929 68.529 51.877 71.9555 52.3665C75.3819 52.856 84.1928 74.8832 84.1928 74.8832L81.2558 78.3096C81.2558 78.3096 77.3399 104.742 84.1928 116.001C91.0457 127.259 93.9827 139.496 87.1297 141.944C80.2768 144.391 32.3064 166.419 34.2644 152.713C36.2224 139.007 34.7539 117.469 32.7959 116.98C30.838 116.49 20.0691 77.8201 20.0691 77.8201C20.5021 75.365 21.5323 73.054 23.0688 71.0907C24.6052 69.1275 26.6009 67.5722 28.88 66.5618C36.7119 63.1353 34.2644 61.6668 34.2644 61.6668Z" fill="#585DB3"/>
<path d="M71.9155 54.2698L74.7524 52.9372C74.7524 52.9372 79.0361 53.9657 79.7406 53.128C80.4451 52.2903 82.825 52.8617 84.9574 52.3668C87.0898 51.872 85.0528 49.8727 87.6612 49.4921C90.2696 49.1116 90.041 50.0635 90.6124 47.6836C91.1838 45.3038 97.9427 44.4095 99.1043 41.6679C100.266 38.9264 108.225 26.7419 108.225 26.7419L116.583 31.7689L110.089 48.3324C110.089 48.3324 108.032 56.8999 102.377 61.583C96.7225 66.2662 83.7751 78.2599 78.9011 77.5932C74.0272 76.9265 71.9155 54.2698 71.9155 54.2698Z" fill="#575A88"/>
<path d="M23.006 75.3727L20.069 77.8201C20.069 77.8201 19.09 88.589 19.09 89.0785C19.09 89.568 20.069 95.4419 19.09 95.9314C18.111 96.4209 16.1531 106.211 16.6426 106.7V108.169L9.78967 118.938V129.217L25.943 118.938C25.943 118.938 35.2433 117.959 33.7749 109.637C32.3064 101.316 23.006 75.3727 23.006 75.3727Z" fill="#575A88"/>
</svg>
