<svg width="141" height="410" viewBox="0 0 141 410" fill="none" xmlns="http://www.w3.org/2000/svg">
<path opacity="0.1" d="M31.59 409.159C43.4625 409.159 53.0871 405.827 53.0871 401.717C53.0871 397.608 43.4625 394.276 31.59 394.276C19.7175 394.276 10.0929 397.608 10.0929 401.717C10.0929 405.827 19.7175 409.159 31.59 409.159Z" fill="black"/>
<path opacity="0.1" d="M119.232 409.159C131.104 409.159 140.729 405.827 140.729 401.717C140.729 397.608 131.104 394.276 119.232 394.276C107.359 394.276 97.7349 397.608 97.7349 401.717C97.7349 405.827 107.359 409.159 119.232 409.159Z" fill="black"/>
<path d="M116.955 126.389V149.249H31.3866V127.787H28.9061V401.717H31.3866V352.677H116.955V401.717H119.435V126.389H116.955ZM116.955 151.73V189.439H31.3866V151.73L116.955 151.73ZM31.3866 269.818V232.109H116.955V269.818H31.3866ZM116.955 272.298V310.007H31.3866V272.298H116.955ZM31.3866 229.629V191.919H116.955V229.629H31.3866ZM31.3866 350.197V312.487H116.955V350.197H31.3866Z" fill="#2F2E41"/>
<path d="M4.4054 131.833V135.259C4.4054 135.259 1.95797 136.238 1.95797 140.154C1.95797 144.07 0 158.755 0 158.755C0 158.755 3.42642 161.692 6.36338 160.713C7.98905 160.219 9.49089 159.385 10.7688 158.265L11.2583 143.091L9.30036 139.175V132.322L4.4054 131.833Z" fill="#189072"/>
<path d="M99.366 4.40882C99.366 4.40882 90.8816 5.61033 90.9841 9.52493C91.0866 13.4395 84.663 28.2976 84.663 28.2976C84.663 28.2976 96.6539 30.9216 106.84 29.6755C117.027 28.4294 122.094 26.8278 122.094 26.8278L123.399 11.6141L116.489 7.87775L99.366 4.40882Z" fill="#098969"/>
<path d="M99.2427 30.0411L98.9992 20.7439C98.9992 20.7439 88.1852 0.461277 96.5038 0.243448C104.822 0.0256194 106.288 18.5944 106.288 18.5944L106.634 31.8062L99.2427 30.0411Z" fill="#FFB8B8"/>
<path d="M10.7689 127.427C10.7689 127.427 5.38443 124.49 4.40545 127.427C3.42646 130.364 0.489499 136.728 4.40545 137.217C8.3214 137.707 12.2373 134.28 12.2373 134.28L10.7689 127.427Z" fill="#FFB8B8"/>
<path d="M37.2692 147.255C37.2692 147.255 34.3217 151.148 38.5981 189.125C42.8746 227.102 40.4105 254.754 48.5288 254.375C48.5288 254.375 46.4099 262.61 53.3084 262.914C60.2069 263.217 63.3584 263.696 63.8954 261.793C64.4324 259.891 65.2733 251.09 63.3998 251.177C63.3998 251.177 63.5163 253.675 64.2989 243.625C65.0814 233.575 62.8656 186.114 65.6965 179.723L76.7669 202.363C76.7669 202.363 77.2626 212.979 79.3693 217.888C81.476 222.796 85.9396 251.377 85.9396 251.377L85.5192 255.777C85.5192 255.777 100.623 257.575 101.131 255.048C101.639 252.521 101.464 248.774 100.781 247.554C100.099 246.335 100.099 246.335 101.231 243.778C101.732 242.817 102.022 241.76 102.079 240.677C102.136 239.595 101.961 238.513 101.564 237.504C100.852 235.66 98.9569 195.068 98.9569 195.068C98.9569 195.068 95.4046 145.792 87.7942 143.644C80.1838 141.496 37.2692 147.255 37.2692 147.255Z" fill="#2F2E41"/>
<path d="M50.5772 258.034L45.9894 267.01C45.9894 267.01 38.0522 264.564 39.9487 271.673C47.5678 271.91 55.1926 271.45 62.7278 270.297C62.7278 270.297 65.9086 271.4 66.4456 269.497C66.9826 267.595 64.4908 261.14 62.6173 261.227C60.7439 261.315 50.5772 258.034 50.5772 258.034Z" fill="#2F2E41"/>
<path d="M86.6806 253.845C86.6806 253.845 82.2096 265.319 84.1122 265.856C86.0148 266.393 102.992 268.104 104.271 268.67C105.549 269.236 111.823 269.569 112.272 265.793C112.722 262.017 108.917 260.943 108.917 260.943C108.917 260.943 101.989 260.015 99.824 253.857C97.659 247.7 86.6806 253.845 86.6806 253.845Z" fill="#2F2E41"/>
<path d="M44.2873 54.1587C51.5087 54.1587 57.3628 48.3046 57.3628 41.0831C57.3628 33.8617 51.5087 28.0076 44.2873 28.0076C37.0658 28.0076 31.2117 33.8617 31.2117 41.0831C31.2117 48.3046 37.0658 54.1587 44.2873 54.1587Z" fill="#FFB8B8"/>
<path d="M37.4052 47.2768C37.4052 47.2768 40.8461 65.1697 39.4697 68.6106C38.0933 72.0516 58.739 67.2342 58.739 67.2342C58.739 67.2342 54.6099 49.3414 55.298 45.2122C55.9862 41.0831 37.4052 47.2768 37.4052 47.2768Z" fill="#FFB8B8"/>
<path d="M43.8899 24.9329C42.8025 24.7359 41.6848 24.7852 40.6191 25.0773C39.766 25.455 38.9808 25.9702 38.2946 26.6021C37.0494 27.5945 35.7194 28.4756 34.3201 29.2353C33.1516 29.7381 32.099 30.476 31.2278 31.403C30.8597 31.9094 30.5658 32.4657 30.355 33.0551C29.0138 36.4802 28.6534 40.2112 29.3141 43.8297C29.3884 44.3439 29.543 44.8431 29.7725 45.3092C30.4877 46.627 32.0675 47.1464 33.3983 47.8372C35.9249 49.1487 37.8402 51.3572 39.9125 53.309C40.6822 54.0774 41.5472 54.744 42.4863 55.2926C45.4427 56.9045 49.0563 56.3786 52.3751 55.8086C52.6102 55.8082 52.843 55.7612 53.06 55.6703C53.2769 55.5795 53.4737 55.4467 53.639 55.2794C53.8043 55.1122 53.935 54.9138 54.0233 54.6959C54.1116 54.4779 54.1559 54.2447 54.1537 54.0095L56.7733 42.2274C57.2481 40.4817 57.4741 38.6778 57.4446 36.8689C57.2619 34.0088 55.7135 30.0469 53.6144 28.0152C51.1687 25.6481 47.0869 25.2714 43.8899 24.9329Z" fill="#2F2E41"/>
<path d="M34.2644 69.6668C34.2644 69.6668 35.2434 62.8139 41.1173 62.3244C44.4394 62.0108 47.7201 61.3547 50.9072 60.3665C51.3967 60.3665 57.7601 60.8559 60.6971 63.7929C60.6971 63.7929 62.6551 66.7299 63.6341 64.7719C64.613 62.8139 64.613 61.8349 66.571 62.8139C68.529 63.7929 68.529 59.877 71.9555 60.3665C75.3819 60.856 84.1928 82.8832 84.1928 82.8832L81.2558 86.3096C81.2558 86.3096 77.3399 112.742 84.1928 124.001C91.0457 135.259 93.9827 147.496 87.1297 149.944C80.2768 152.391 32.3064 174.419 34.2644 160.713C36.2224 147.007 34.7539 125.469 32.7959 124.98C30.838 124.49 20.0691 85.8201 20.0691 85.8201C20.5021 83.365 21.5323 81.054 23.0688 79.0907C24.6052 77.1275 26.6009 75.5722 28.88 74.5618C36.7119 71.1353 34.2644 69.6668 34.2644 69.6668Z" fill="#585DB3"/>
<path d="M69.7002 62.822L72.0955 60.8007C72.0955 60.8007 76.4995 60.6854 76.9631 59.6939C77.4268 58.7024 79.8735 58.6384 81.8052 57.6085C83.7369 56.5786 81.2518 55.1747 83.6728 54.1319C86.0938 53.0892 86.1194 54.0679 86.0554 51.6212C85.9913 49.1746 92.2884 46.5614 92.7009 43.6126C93.1133 40.6638 97.6478 26.8346 97.6478 26.8346L107.022 29.5271L105.037 47.2069C105.037 47.2069 105.267 56.0148 101.017 62.002C96.7668 67.9892 87.3647 82.9253 82.4843 83.5428C77.6039 84.1602 69.7002 62.822 69.7002 62.822Z" fill="#575A88"/>
<path d="M23.006 83.3727L20.069 85.8201C20.069 85.8201 19.09 96.589 19.09 97.0785C19.09 97.568 20.069 103.442 19.09 103.931C18.111 104.421 16.1531 114.211 16.6426 114.7V116.169L9.78967 126.938V137.217L25.943 126.938C25.943 126.938 35.2433 125.959 33.7749 117.637C32.3064 109.316 23.006 83.3727 23.006 83.3727Z" fill="#575A88"/>
</svg>
