<svg xmlns="http://www.w3.org/2000/svg" viewBox="0 0 1440 320"><path fill="#00cba9" fill-opacity="1" d="M0,32L21.8,26.7C43.6,21,87,11,131,42.7C174.5,75,218,149,262,149.3C305.5,149,349,75,393,64C436.4,53,480,107,524,117.3C567.3,128,611,96,655,117.3C698.2,139,742,213,785,208C829.1,203,873,117,916,90.7C960,64,1004,96,1047,138.7C1090.9,181,1135,235,1178,224C1221.8,213,1265,139,1309,138.7C1352.7,139,1396,213,1418,250.7L1440,288L1440,320L1418.2,320C1396.4,320,1353,320,1309,320C1265.5,320,1222,320,1178,320C1134.5,320,1091,320,1047,320C1003.6,320,960,320,916,320C872.7,320,829,320,785,320C741.8,320,698,320,655,320C610.9,320,567,320,524,320C480,320,436,320,393,320C349.1,320,305,320,262,320C218.2,320,175,320,131,320C87.3,320,44,320,22,320L0,320Z"></path></svg>