<svg  width="1718" height="414" viewBox="0 0 1718 414" fill="none" xmlns="http://www.w3.org/2000/svg">
<path d="M-157 48.3333L-137.66 96.6667C-118.174 145 -79.9292 241.667 -40.6667 265.833C-1.84042 290 36.4042 241.667 75.6667 193.333C114.493 145 152.737 96.6667 192 96.6667C230.826 96.6667 269.071 145 308.333 128.839C347.16 113.281 385.404 31.7188 424.667 40.3281C463.493 48.3333 501.737 145 541 201.339C579.826 258.281 618.071 273.385 657.333 298.005C696.16 321.719 734.404 354.948 773.667 346.339C812.493 338.333 850.737 290 890 298.005C928.826 306.615 967.071 370.052 1006.33 386.667C1045.16 403.281 1083.4 370.052 1122.67 298.005C1161.49 225.052 1199.74 113.281 1239 104.672C1277.83 96.6667 1316.07 193.333 1355.33 225.505C1394.16 258.281 1432.4 225.052 1471.67 217.5C1510.49 209.948 1548.74 225.052 1588 233.661C1626.83 241.667 1665.07 241.667 1704.33 249.672C1743.16 258.281 1781.4 273.385 1820.67 233.661C1859.49 193.333 1897.74 96.6667 1918.1 48.3333L1937 0V435H1917.66C1898.17 435 1859.93 435 1820.67 435C1781.84 435 1743.6 435 1704.33 435C1665.51 435 1627.26 435 1588 435C1549.17 435 1510.93 435 1471.67 435C1432.84 435 1394.6 435 1355.33 435C1316.51 435 1278.26 435 1239 435C1200.17 435 1161.93 435 1122.67 435C1083.84 435 1045.6 435 1006.33 435C967.507 435 929.262 435 890 435C851.174 435 812.929 435 773.667 435C734.84 435 696.596 435 657.333 435C618.507 435 580.263 435 541 435C502.174 435 463.929 435 424.667 435C385.84 435 347.596 435 308.333 435C269.507 435 231.262 435 192 435C153.174 435 114.929 435 75.6667 435C36.8404 435 -1.40417 435 -40.6667 435C-79.4929 435 -117.737 435 -138.096 435H-157V48.3333Z" fill="#00CBA9"/>
</svg>
